# xmcd
#
# Track frame offsets:
# 150
# 19012
# 31575
# 42375
# 64012
# 78417
# 96037
# 109800
# 132937
# 153450
#
# Disc length: 2372 seconds
#
#
# Revision: 0
# Processed by: cddbd v1.5.2PL0 Copyright (c) Steve Scherf et al.
# Submitted via: FreeRIP 2.945 
#
DISCID=7409420a
DTITLE=Salamander Crossing - Passion Train
DYEAR=1996
DGENRE=Bluegrass
TTITLE0=Passion Train
TTITLE1=Two Faces Have I
TTITLE2=Trip Me Up
TTITLE3=Sweetest Song
TTITLE4=Oh My Little Darlin'/Ruby On The Railroad
TTITLE5=Color Outside The Lines
TTITLE6=Rocky Mountain Side
TTITLE7=Broken Night
TTITLE8=Walls Of Time
TTITLE9=The New Madera Waltz
EXTD=Signature Sounds Recording Company
EXTT0=
EXTT1=
EXTT2=
EXTT3=
EXTT4=
EXTT5=
EXTT6=
EXTT7=
EXTT8=
EXTT9=
PLAYORDER=
